<svg xmlns="http://www.w3.org/2000/svg" width="1em" height="1em" viewBox="0 0 24 24" fill="#0AAD0A" color="brandPrimaryRegular" class="css-1isemmb"><path fill-rule="evenodd" clip-rule="evenodd" d="M3.663 4.319c-.163.32-.163.74-.163 1.581v2.7c0 .84 0 1.26.163 1.581a1.5 1.5 0 00.656.655c.32.164.74.164 1.581.164h2.7c.84 0 1.26 0 1.581-.164a1.5 1.5 0 00.655-.655C11 9.861 11 9.441 11 8.6V5.9c0-.84 0-1.26-.164-1.581a1.5 1.5 0 00-.655-.656C9.861 3.5 9.441 3.5 8.6 3.5H5.9c-.84 0-1.26 0-1.581.163a1.5 1.5 0 00-.656.656zm9.5 0C13 4.639 13 5.059 13 5.9v2.7c0 .84 0 1.26.164 1.581a1.5 1.5 0 00.655.655c.32.164.74.164 1.581.164h2.7c.84 0 1.26 0 1.581-.164a1.5 1.5 0 00.655-.655c.164-.32.164-.74.164-1.581V5.9c0-.84 0-1.26-.163-1.581a1.5 1.5 0 00-.656-.656c-.32-.163-.74-.163-1.581-.163h-2.7c-.84 0-1.26 0-1.581.163a1.5 1.5 0 00-.655.656zM13 15.4c0-.84 0-1.26.164-1.581a1.5 1.5 0 01.655-.655c.32-.164.74-.164 1.581-.164h2.7c.84 0 1.26 0 1.581.164a1.5 1.5 0 01.655.655c.164.32.164.74.164 1.581v2.7c0 .84 0 1.26-.163 1.581a1.5 1.5 0 01-.656.655c-.32.164-.74.164-1.581.164h-2.7c-.84 0-1.26 0-1.581-.163a1.5 1.5 0 01-.655-.656C13 19.361 13 18.941 13 18.1v-2.7zm-9.337-1.581c-.163.32-.163.74-.163 1.581v2.7c0 .84 0 1.26.163 1.581a1.5 1.5 0 00.656.655c.32.164.74.164 1.581.164h2.7c.84 0 1.26 0 1.581-.163a1.5 1.5 0 00.655-.656c.164-.32.164-.74.164-1.581v-2.7c0-.84 0-1.26-.164-1.581a1.5 1.5 0 00-.655-.655C9.861 13 9.441 13 8.6 13H5.9c-.84 0-1.26 0-1.581.164a1.5 1.5 0 00-.656.655z"></path></svg>